<?xml version="1.0" standalone="no"?>
<!DOCTYPE svg PUBLIC "-//W3C//DTD SVG 20010904//EN"
 "http://www.w3.org/TR/2001/REC-SVG-20010904/DTD/svg10.dtd">
<svg version="1.0" xmlns="http://www.w3.org/2000/svg"
 width="194.000000pt" height="259.000000pt" viewBox="0 0 194.000000 259.000000"
 preserveAspectRatio="xMidYMid meet">
<metadata>
Created by potrace 1.16, written by Peter Selinger 2001-2019
</metadata>
<g transform="translate(0.000000,259.000000) scale(0.100000,-0.100000)"
fill="#000000" stroke="none">
<path d="M0 2081 c0 -497 0 -509 20 -534 12 -15 63 -95 115 -179 l94 -153 -42
-21 c-52 -27 -75 -67 -116 -199 -43 -140 -52 -228 -57 -565 -2 -162 -6 -325
-8 -362 l-3 -68 968 0 969 0 0 1295 0 1295 -970 0 -970 0 0 -509z m1430 68 c0
-26 4 -38 11 -34 6 4 39 4 75 0 l64 -7 0 -39 c0 -28 4 -39 15 -39 28 0 3 -27
-36 -39 -46 -14 -98 -2 -133 31 -20 18 -22 33 -15 131 4 50 19 47 19 -4z
m-154 -40 c21 -10 29 -22 31 -44 1 -17 9 -67 18 -112 13 -65 14 -90 5 -123 -6
-23 -9 -45 -6 -48 3 -3 6 2 6 11 0 10 5 17 10 17 6 0 10 20 10 44 0 47 19 72
46 62 14 -5 16 -17 12 -69 -5 -56 -14 -83 -48 -137 -5 -8 -12 -28 -15 -43 -5
-24 -10 -28 -29 -23 -20 5 -24 1 -29 -29 -3 -18 -15 -47 -27 -64 -20 -26 -21
-34 -12 -78 6 -26 13 -96 16 -155 3 -59 10 -116 15 -127 20 -36 11 -618 -9
-606 -4 3 -11 22 -14 42 -15 89 -40 183 -49 183 -4 0 -5 9 -2 20 4 12 2 20 -5
20 -6 0 -9 4 -6 9 8 13 -14 72 -25 65 -5 -3 -6 2 -3 10 3 8 0 28 -8 43 -19 39
-15 141 8 183 13 25 19 30 22 18 2 -9 9 -19 17 -22 11 -4 11 1 -1 30 -20 47
-72 98 -87 86 -7 -6 -32 -14 -57 -19 -38 -7 -48 -15 -67 -48 l-22 -40 26 -5
c14 -3 35 -17 46 -32 18 -24 19 -32 8 -103 -6 -42 -11 -127 -11 -190 0 -63 -4
-115 -8 -115 -4 0 -20 39 -36 88 -15 48 -52 150 -81 227 -89 229 -143 381
-150 417 -4 18 -1 46 6 63 l12 30 7 -40 c9 -49 73 -109 170 -160 75 -41 80
-42 80 -15 0 22 45 70 65 70 7 0 19 8 28 18 15 16 13 17 -21 18 -51 1 -75 7
-105 27 -15 9 -31 17 -37 17 -5 0 -10 4 -10 9 0 10 48 21 90 21 19 0 30 7 38
25 10 21 9 25 -4 25 -9 0 -32 7 -51 17 -30 14 -33 17 -18 26 18 9 109 4 154
-9 21 -6 23 -5 13 12 -6 10 -16 19 -24 20 -7 0 -33 2 -58 3 -31 1 -41 4 -31
10 11 7 8 9 -10 9 -56 1 -94 17 -97 41 -2 13 0 21 5 18 5 -3 31 -1 58 5 28 6
60 10 73 9 13 0 20 4 17 9 -3 6 -18 10 -32 10 -13 0 -38 9 -53 20 -26 18 -27
23 -19 57 5 21 8 70 8 108 0 69 0 70 -35 93 -20 12 -48 22 -63 22 -30 0 -81
21 -81 33 0 5 9 5 20 2 21 -7 28 9 9 21 -8 4 -3 12 12 21 33 19 352 12 395 -8z
m-319 -182 c16 6 17 10 -3 -102 -5 -26 -15 -40 -42 -57 l-35 -22 -35 40 c-18
21 -40 51 -48 67 -13 24 -13 28 1 33 8 4 21 2 28 -3 6 -6 28 -8 47 -6 19 3 48
5 63 5 45 1 9 18 -37 18 -22 0 -36 3 -32 8 8 7 13 8 41 11 8 0 15 9 15 19 1
16 1 16 11 0 6 -10 16 -15 26 -11z"/>
</g>
</svg>
